<?xml version="1.0" encoding="utf-8"?>
<!-- Generator: Adobe Illustrator 25.0.0, SVG Export Plug-In . SVG Version: 6.00 Build 0)  -->
<svg version="1.1" id="Lag_1" xmlns="http://www.w3.org/2000/svg" xmlns:xlink="http://www.w3.org/1999/xlink" x="0px" y="0px"
	 viewBox="0 0 900.57 224.77" style="enable-background:new 0 0 900.57 224.77;" xml:space="preserve">
<style type="text/css">
	.st0{fill:#12054D;}
	.st1{fill:#3D075F;}
	.st2{fill:#210552;}
	.st3{fill:#46108A;}
	.st4{font-family:'MaisonMono-Italic';}
	.st5{font-size:34.7325px;}
	.st6{font-family:'MaisonMono-Bold';}
	.st7{font-size:90.2361px;}
	.st8{letter-spacing:2;}
	.st9{font-family:'MaisonMono-Light';}
	.st10{fill:#FFFFFF;}
</style>
<g>
	<path class="st0" d="M107.96-67.3c-15.27,2.04-31.24,0.74-45.97-4.28c-14.74-4.98-28.22-13.38-39.07-24.64
		c-5.39-5.67-10.19-12-13.99-19.1c-1.91-3.54-3.58-7.26-4.96-11.14c-1.36-3.89-2.42-7.95-3.11-12.14
		c-1.37-8.36-1.2-17.34,1.12-25.95c2.27-8.6,6.61-16.64,12.12-23.14c2.76-3.25,5.77-6.16,8.92-8.76c3.17-2.55,6.45-4.81,9.81-6.79
		c6.72-3.93,13.64-6.77,20.54-8.98c1.73-0.55,3.45-1.01,5.18-1.52l5.16-1.28c3.34-0.74,6.67-1.44,9.99-2.01
		c6.65-1.18,13.27-2.01,19.86-2.64c13.17-1.25,26.21-1.58,39.13-1.44c12.92,0.15,25.74,0.82,38.47,1.8
		c25.46,1.98,50.61,5.21,75.58,8.94c24.97,3.74,49.76,8.04,74.46,12.46c24.7,4.42,49.32,8.99,73.91,13.22
		c24.59,4.2,49.19,8.2,73.71,10.65c12.25,1.19,24.51,2,36.49,1.69c5.97-0.17,11.89-0.62,17.46-1.67c2.78-0.52,5.47-1.2,7.94-2.09
		c2.46-0.89,4.75-1.96,6.54-3.28c3.64-2.63,5.33-5.79,5.47-10.48c0.07-4.82-1.47-9.11-4.65-12.84c-3.15-3.74-7.8-6.8-12.93-9.19
		c-5.15-2.4-10.79-4.19-16.58-5.59c-11.62-2.79-23.83-4.08-36.07-4.67c-12.26-0.56-24.62-0.37-36.97,0.34
		c-24.69,1.46-49.36,4.89-73.56,10.23c-12.09,2.7-24.07,5.89-35.71,9.89c-5.81,2.01-11.55,4.22-17.07,6.77
		c-5.54,2.56-10.8,5.42-15.55,8.96c-9.64,7.09-17.76,16.4-24.5,26.59c-6.74,10.22-12.15,21.38-16.31,32.99
		c-4.15,11.62-7.06,23.72-8.4,36.01c-0.67,6.14-0.94,12.33-0.68,18.5c0.26,6.16,1.04,12.32,2.57,18.28
		c1.53,5.96,3.81,11.75,7.14,16.91c3.31,5.16,7.75,9.62,13.07,12.75c5.31,3.14,11.41,4.88,17.6,5.45c6.21,0.57,12.5,0.03,18.64-1.13
		c-6.1,1.37-12.39,2.12-18.69,1.76c-6.28-0.36-12.58-1.92-18.18-4.98c-5.6-3.04-10.39-7.54-14.02-12.79
		c-3.64-5.26-6.22-11.19-8-17.3c-1.79-6.12-2.8-12.43-3.28-18.76c-0.48-6.34-0.42-12.7,0.05-19.03c0.96-12.66,3.52-25.17,7.39-37.28
		c3.88-12.1,9.08-23.83,15.77-34.76c6.7-10.9,14.93-21.09,25.23-29.23c2.55-2.04,5.34-3.91,8.13-5.57c2.81-1.67,5.67-3.19,8.56-4.6
		c5.79-2.83,11.71-5.25,17.68-7.46c11.96-4.4,24.15-7.92,36.44-10.95c24.6-5.98,49.63-10.01,74.91-12.06
		c12.64-1,25.35-1.48,38.13-1.16c12.77,0.35,25.61,1.4,38.44,4.17c6.41,1.41,12.81,3.26,19.09,6.01c3.14,1.38,6.23,3.01,9.22,4.99
		c2.98,1.99,5.86,4.34,8.4,7.2c2.55,2.84,4.69,6.24,6.14,9.96c1.45,3.72,2.13,7.71,2.17,11.57c0.05,3.92-0.61,8.24-2.51,12.18
		c-1.84,3.96-4.78,7.31-7.96,9.75c-3.19,2.51-6.59,4.2-9.96,5.57c-3.38,1.36-6.75,2.32-10.1,3.08c-6.69,1.51-13.29,2.23-19.82,2.67
		c-13.05,0.81-25.87,0.41-38.58-0.35c-25.41-1.6-50.44-4.74-75.37-8.06c-24.92-3.36-49.72-7.02-74.48-10.51
		c-24.76-3.49-49.49-6.84-74.19-9.62c-24.7-2.77-49.39-5-73.93-6c-12.27-0.49-24.5-0.67-36.63-0.37
		c-12.12,0.31-24.14,1.08-35.86,2.63c-5.86,0.78-11.65,1.73-17.29,2.95c-2.83,0.59-5.6,1.29-8.36,2l-3.91,1.14
		c-1.26,0.44-2.55,0.83-3.79,1.29c-4.96,1.81-9.58,4-13.58,6.57c-1.99,1.29-3.8,2.69-5.46,4.13c-1.61,1.47-3.04,3-4.27,4.58
		c-2.43,3.18-3.96,6.54-4.74,10.09c-0.78,3.55-0.7,7.37,0.12,11.32c1.61,7.92,6.63,16.1,13.41,22.58
		c6.83,6.51,15.41,11.38,24.53,14.02c9.14,2.67,18.81,3.04,28.3,1.39L107.96-67.3z"/>
</g>
<path class="st0" d="M110.85-52.85H99.08c-0.42,0-0.77-0.34-0.77-0.77v-66.92c0-0.42,0.34-0.77,0.77-0.77h11.77
	c0.42,0,0.77,0.34,0.77,0.77v66.92C111.62-53.2,111.28-52.85,110.85-52.85z"/>
<path class="st1" d="M151.47-41.08H139.7c-0.42,0-0.77-0.34-0.77-0.77v-90.47c0-0.42,0.34-0.77,0.77-0.77h11.77
	c0.42,0,0.77,0.34,0.77,0.77v90.47C152.24-41.42,151.89-41.08,151.47-41.08z"/>
<path class="st2" d="M131.07-41.08H119.3c-0.42,0-0.77-0.34-0.77-0.77v-90.47c0-0.42,0.34-0.77,0.77-0.77h11.77
	c0.42,0,0.77,0.34,0.77,0.77v90.47C131.84-41.42,131.49-41.08,131.07-41.08z"/>
<path class="st1" d="M171.87-30.55H160.1c-0.42,0-0.77-0.34-0.77-0.77v-111.53c0-0.42,0.34-0.77,0.77-0.77h11.77
	c0.42,0,0.77,0.34,0.77,0.77v111.53C172.63-30.89,172.29-30.55,171.87-30.55z"/>
<path class="st3" d="M192.74-11.98h-11.77c-0.42,0-0.77-0.34-0.77-0.77v-145.9c0-0.42,0.34-0.77,0.77-0.77h11.77
	c0.42,0,0.77,0.34,0.77,0.77v145.9C193.51-12.32,193.16-11.98,192.74-11.98z"/>
<path class="st3" d="M200.71-30.55v-113.07l79.16,20.78c3.43,0.9,5.82,4,5.82,7.55v56.38c0,3.56-2.4,6.68-5.85,7.58L200.71-30.55z"
	/>
<text transform="matrix(1 0 0 1 267.3033 -55.2715)" class="st3 st6 st7 st8">MAGSTENSION</text>
<text transform="matrix(1 0 0 1 284.797 -9.1035)" class="st0 st4 st5">extensions for VS Code</text>
<g>
	<g>
		<path d="M107.96,166.57c-15.27,2.04-31.24,0.74-45.97-4.28c-14.74-4.98-28.22-13.38-39.07-24.64c-5.39-5.67-10.19-12-13.99-19.1
			c-1.91-3.54-3.58-7.26-4.96-11.14c-1.36-3.89-2.42-7.95-3.11-12.14c-1.37-8.36-1.2-17.34,1.12-25.95
			c2.27-8.6,6.61-16.64,12.12-23.14c2.76-3.25,5.77-6.16,8.92-8.76c3.17-2.55,6.45-4.81,9.81-6.79c6.72-3.93,13.64-6.77,20.54-8.98
			c1.73-0.55,3.45-1.01,5.18-1.52l5.16-1.28c3.34-0.74,6.67-1.44,9.99-2.01c6.65-1.18,13.27-2.01,19.86-2.64
			c13.17-1.25,26.21-1.58,39.13-1.44c12.92,0.15,25.74,0.82,38.47,1.8c25.46,1.98,50.61,5.21,75.58,8.94
			c24.97,3.74,49.76,8.04,74.46,12.46c24.7,4.42,49.32,8.99,73.91,13.22c24.59,4.2,49.19,8.2,73.71,10.65
			c12.25,1.19,24.51,2,36.49,1.69c5.97-0.17,11.89-0.62,17.46-1.67c2.78-0.52,5.47-1.2,7.94-2.09c2.46-0.89,4.75-1.96,6.54-3.28
			c3.64-2.63,5.33-5.79,5.47-10.48c0.07-4.82-1.47-9.11-4.65-12.84c-3.15-3.74-7.8-6.8-12.93-9.19c-5.15-2.4-10.79-4.19-16.58-5.59
			c-11.62-2.79-23.83-4.08-36.07-4.67c-12.26-0.56-24.62-0.37-36.97,0.34c-24.69,1.46-49.36,4.89-73.56,10.23
			c-12.09,2.7-24.07,5.89-35.71,9.89c-5.81,2.01-11.55,4.22-17.07,6.77c-5.54,2.56-10.8,5.42-15.55,8.96
			c-9.64,7.09-17.76,16.4-24.5,26.59c-6.74,10.22-12.15,21.38-16.31,32.99c-4.15,11.62-7.06,23.72-8.4,36.01
			c-0.67,6.14-0.94,12.33-0.68,18.5c0.26,6.16,1.04,12.32,2.57,18.28c1.53,5.96,3.81,11.75,7.14,16.91
			c3.31,5.16,7.75,9.62,13.07,12.75c5.31,3.14,11.41,4.88,17.6,5.45c6.21,0.57,12.5,0.03,18.64-1.13
			c-6.1,1.37-12.39,2.12-18.69,1.76c-6.28-0.36-12.58-1.92-18.18-4.98c-5.6-3.04-10.39-7.54-14.02-12.79
			c-3.64-5.26-6.22-11.19-8-17.3c-1.79-6.12-2.8-12.43-3.28-18.76c-0.48-6.34-0.42-12.7,0.05-19.03
			c0.96-12.66,3.52-25.17,7.39-37.28c3.88-12.1,9.08-23.83,15.77-34.76c6.7-10.9,14.93-21.09,25.23-29.23
			c2.55-2.04,5.34-3.91,8.13-5.57c2.81-1.67,5.67-3.19,8.56-4.6c5.79-2.83,11.71-5.25,17.68-7.46c11.96-4.4,24.15-7.92,36.44-10.95
			c24.6-5.98,49.63-10.01,74.91-12.06c12.64-1,25.35-1.48,38.13-1.16c12.77,0.35,25.61,1.4,38.44,4.17
			c6.41,1.41,12.81,3.26,19.09,6.01c3.14,1.38,6.23,3.01,9.22,4.99c2.98,1.99,5.86,4.34,8.4,7.2c2.55,2.84,4.69,6.24,6.14,9.96
			c1.45,3.72,2.13,7.71,2.17,11.57c0.05,3.92-0.61,8.24-2.51,12.18c-1.84,3.96-4.78,7.31-7.96,9.75c-3.19,2.51-6.59,4.2-9.96,5.57
			c-3.38,1.36-6.75,2.32-10.1,3.08c-6.69,1.51-13.29,2.23-19.82,2.67c-13.05,0.81-25.87,0.41-38.58-0.35
			c-25.41-1.6-50.44-4.74-75.37-8.06c-24.92-3.36-49.72-7.02-74.48-10.51c-24.76-3.49-49.49-6.84-74.19-9.62
			c-24.7-2.77-49.39-5-73.93-6c-12.27-0.49-24.5-0.67-36.63-0.37c-12.12,0.31-24.14,1.08-35.86,2.63
			c-5.86,0.78-11.65,1.73-17.29,2.95c-2.83,0.59-5.6,1.29-8.36,2l-3.91,1.14c-1.26,0.44-2.55,0.83-3.79,1.29
			c-4.96,1.81-9.58,4-13.58,6.57c-1.99,1.29-3.8,2.69-5.46,4.13c-1.61,1.47-3.04,3-4.27,4.58c-2.43,3.18-3.96,6.54-4.74,10.09
			c-0.78,3.55-0.7,7.37,0.12,11.32c1.61,7.92,6.63,16.1,13.41,22.58c6.83,6.51,15.41,11.38,24.53,14.02
			c9.14,2.67,18.81,3.04,28.3,1.39L107.96,166.57z"/>
	</g>
</g>
<path d="M110.85,181.02H99.08c-0.42,0-0.77-0.34-0.77-0.77v-66.92c0-0.42,0.34-0.77,0.77-0.77h11.77c0.42,0,0.77,0.34,0.77,0.77
	v66.92C111.62,180.67,111.28,181.02,110.85,181.02z"/>
<path d="M151.47,192.8H139.7c-0.42,0-0.77-0.34-0.77-0.77v-90.47c0-0.42,0.34-0.77,0.77-0.77h11.77c0.42,0,0.77,0.34,0.77,0.77
	v90.47C152.24,192.45,151.89,192.8,151.47,192.8z"/>
<path d="M131.07,192.8H119.3c-0.42,0-0.77-0.34-0.77-0.77v-90.47c0-0.42,0.34-0.77,0.77-0.77h11.77c0.42,0,0.77,0.34,0.77,0.77
	v90.47C131.84,192.45,131.49,192.8,131.07,192.8z"/>
<path d="M171.87,203.33H160.1c-0.42,0-0.77-0.34-0.77-0.77V91.03c0-0.42,0.34-0.77,0.77-0.77h11.77c0.42,0,0.77,0.34,0.77,0.77
	v111.53C172.63,202.98,172.29,203.33,171.87,203.33z"/>
<path d="M192.74,221.89h-11.77c-0.42,0-0.77-0.34-0.77-0.77V75.23c0-0.42,0.34-0.77,0.77-0.77h11.77c0.42,0,0.77,0.34,0.77,0.77
	v145.9C193.51,221.55,193.16,221.89,192.74,221.89z"/>
<path d="M200.71,203.33V90.26l79.16,20.78c3.43,0.9,5.82,4,5.82,7.55v56.38c0,3.56-2.4,6.68-5.85,7.58L200.71,203.33z"/>
<text transform="matrix(1 0 0 1 267.3033 178.6009)" class="st6 st7 st8">MAGSTENSION</text>
<text transform="matrix(1 0 0 1 284.797 224.7689)" class="st9 st5">extensions for VS Code</text>
<g>
	<path class="st10" d="M107.96,696.97c-15.27,2.04-31.24,0.74-45.97-4.28c-14.74-4.98-28.22-13.38-39.07-24.64
		c-5.39-5.67-10.19-12-13.99-19.1c-1.91-3.54-3.58-7.26-4.96-11.14c-1.36-3.89-2.42-7.95-3.11-12.14
		c-1.37-8.36-1.2-17.34,1.12-25.95c2.27-8.6,6.61-16.64,12.12-23.14c2.76-3.25,5.77-6.16,8.92-8.76c3.17-2.55,6.45-4.81,9.81-6.79
		c6.72-3.93,13.64-6.77,20.54-8.98c1.73-0.55,3.45-1.01,5.18-1.52l5.16-1.28c3.34-0.74,6.67-1.44,9.99-2.01
		c6.65-1.18,13.27-2.01,19.86-2.64c13.17-1.25,26.21-1.58,39.13-1.44c12.92,0.15,25.74,0.82,38.47,1.8
		c25.46,1.98,50.61,5.21,75.58,8.94c24.97,3.74,49.76,8.04,74.46,12.46c24.7,4.42,49.32,8.99,73.91,13.22
		c24.59,4.2,49.19,8.2,73.71,10.65c12.25,1.19,24.51,2,36.49,1.69c5.97-0.17,11.89-0.62,17.46-1.67c2.78-0.52,5.47-1.2,7.94-2.09
		c2.46-0.89,4.75-1.96,6.54-3.28c3.64-2.63,5.33-5.79,5.47-10.48c0.07-4.82-1.47-9.11-4.65-12.84c-3.15-3.74-7.8-6.8-12.93-9.19
		c-5.15-2.4-10.79-4.19-16.58-5.59c-11.62-2.79-23.83-4.08-36.07-4.67c-12.26-0.56-24.62-0.37-36.97,0.34
		c-24.69,1.46-49.36,4.89-73.56,10.23c-12.09,2.7-24.07,5.89-35.71,9.89c-5.81,2.01-11.55,4.22-17.07,6.77
		c-5.54,2.56-10.8,5.42-15.55,8.96c-9.64,7.09-17.76,16.4-24.5,26.59c-6.74,10.22-12.15,21.38-16.31,32.99
		c-4.15,11.62-7.06,23.72-8.4,36.01c-0.67,6.14-0.94,12.33-0.68,18.5c0.26,6.16,1.04,12.32,2.57,18.28
		c1.53,5.96,3.81,11.75,7.14,16.91c3.31,5.16,7.75,9.62,13.07,12.75c5.31,3.14,11.41,4.88,17.6,5.45c6.21,0.57,12.5,0.03,18.64-1.13
		c-6.1,1.37-12.39,2.12-18.69,1.76c-6.28-0.36-12.58-1.92-18.18-4.98c-5.6-3.04-10.39-7.54-14.02-12.79
		c-3.64-5.26-6.22-11.19-8-17.3c-1.79-6.12-2.8-12.43-3.28-18.76c-0.48-6.34-0.42-12.7,0.05-19.03c0.96-12.66,3.52-25.17,7.39-37.28
		c3.88-12.1,9.08-23.83,15.77-34.76c6.7-10.9,14.93-21.09,25.23-29.23c2.55-2.04,5.34-3.91,8.13-5.57c2.81-1.67,5.67-3.19,8.56-4.6
		c5.79-2.83,11.71-5.25,17.68-7.46c11.96-4.4,24.15-7.92,36.44-10.95c24.6-5.98,49.63-10.01,74.91-12.06
		c12.64-1,25.35-1.48,38.13-1.16c12.77,0.35,25.61,1.4,38.44,4.17c6.41,1.41,12.81,3.26,19.09,6.01c3.14,1.38,6.23,3.01,9.22,4.99
		c2.98,1.99,5.86,4.34,8.4,7.2c2.55,2.84,4.69,6.24,6.14,9.96c1.45,3.72,2.13,7.71,2.17,11.57c0.05,3.92-0.61,8.24-2.51,12.18
		c-1.84,3.96-4.78,7.31-7.96,9.75c-3.19,2.51-6.59,4.2-9.96,5.57c-3.38,1.36-6.75,2.32-10.1,3.08c-6.69,1.51-13.29,2.23-19.82,2.67
		c-13.05,0.81-25.87,0.41-38.58-0.35c-25.41-1.6-50.44-4.74-75.37-8.06c-24.92-3.36-49.72-7.02-74.48-10.51
		c-24.76-3.49-49.49-6.84-74.19-9.62c-24.7-2.77-49.39-5-73.93-6c-12.27-0.49-24.5-0.67-36.63-0.37
		c-12.12,0.31-24.14,1.08-35.86,2.63c-5.86,0.78-11.65,1.73-17.29,2.95c-2.83,0.59-5.6,1.29-8.36,2l-3.91,1.14
		c-1.26,0.44-2.55,0.83-3.79,1.29c-4.96,1.81-9.58,4-13.58,6.57c-1.99,1.29-3.8,2.69-5.46,4.13c-1.61,1.47-3.04,3-4.27,4.58
		c-2.43,3.18-3.96,6.54-4.74,10.09c-0.78,3.55-0.7,7.37,0.12,11.32c1.61,7.92,6.63,16.1,13.41,22.58
		c6.83,6.51,15.41,11.38,24.53,14.02c9.14,2.67,18.81,3.04,28.3,1.39L107.96,696.97z"/>
</g>
<path class="st10" d="M110.85,711.42H99.08c-0.42,0-0.77-0.34-0.77-0.77v-66.92c0-0.42,0.34-0.77,0.77-0.77h11.77
	c0.42,0,0.77,0.34,0.77,0.77v66.92C111.62,711.07,111.28,711.42,110.85,711.42z"/>
<path class="st10" d="M151.47,723.19H139.7c-0.42,0-0.77-0.34-0.77-0.77v-90.47c0-0.42,0.34-0.77,0.77-0.77h11.77
	c0.42,0,0.77,0.34,0.77,0.77v90.47C152.24,722.85,151.89,723.19,151.47,723.19z"/>
<path class="st10" d="M131.07,723.19H119.3c-0.42,0-0.77-0.34-0.77-0.77v-90.47c0-0.42,0.34-0.77,0.77-0.77h11.77
	c0.42,0,0.77,0.34,0.77,0.77v90.47C131.84,722.85,131.49,723.19,131.07,723.19z"/>
<path class="st10" d="M171.87,733.72H160.1c-0.42,0-0.77-0.34-0.77-0.77V621.42c0-0.42,0.34-0.77,0.77-0.77h11.77
	c0.42,0,0.77,0.34,0.77,0.77v111.53C172.63,733.38,172.29,733.72,171.87,733.72z"/>
<path class="st10" d="M192.74,752.29h-11.77c-0.42,0-0.77-0.34-0.77-0.77v-145.9c0-0.42,0.34-0.77,0.77-0.77h11.77
	c0.42,0,0.77,0.34,0.77,0.77v145.9C193.51,751.95,193.16,752.29,192.74,752.29z"/>
<path class="st10" d="M200.71,733.72V620.66l79.16,20.78c3.43,0.9,5.82,4,5.82,7.55v56.38c0,3.56-2.4,6.68-5.85,7.58L200.71,733.72z
	"/>
<text transform="matrix(1 0 0 1 267.3033 708.9987)" class="st10 st6 st7 st8">MAGSTENSION</text>
<text transform="matrix(1 0 0 1 284.797 755.1667)" class="st10 st9 st5">extensions for VS Code</text>
</svg>
