<svg id="Layer_1" enable-background="new 0 0 512 512" height="512" viewBox="0 0 512 512" width="512" xmlns="http://www.w3.org/2000/svg"><g><path d="m348.863 98.194c-2.557-5.489-10.514-5.725-13.395-.403-.124.229-12.679 23.155-37.012 44.524-7.286 6.399 2.613 17.67 9.898 11.271 14.878-13.067 25.634-26.574 32.276-36.037 5.879 15.341 15.125 42.827 20.045 74.817 4.384 28.504 4.524 54.958.417 78.626-5.063 29.18-16.66 54.21-34.467 74.396-16.941 19.204-40.187 31.614-65.457 34.946-25.715 3.393-52.364-2.866-75.035-17.618-5.729-3.728-10.875-7.929-15.404-12.523 6.223-8.034 13.472-15.44 21.648-22.267 21.666-18.089 46.679-31.672 69.044-48.841 13.561-10.411 26.163-21.897 36.678-35.432 2.503-3.222 3.083-7.456 0-10.606-2.561-2.618-8.126-3.194-10.607 0-34.302 44.157-91.187 62.662-126.63 105.072-6.706-10.031-10.954-21.318-12.396-33.352-2.834-23.661 5.709-48.027 23.441-66.851 18.055-19.168 38.632-28.931 62.458-40.235 12.667-6.01 25.764-12.224 40.299-20.538 8.418-4.815.969-17.837-7.447-13.021-14.036 8.028-26.87 14.117-39.281 20.006-25.196 11.955-46.956 22.278-66.948 43.502-20.787 22.069-30.78 50.834-27.416 78.92 1.943 16.222 8.1 31.267 17.884 44.256-9.033 13.933-15.031 29.677-18.285 45.944-1.885 9.427 12.569 13.46 14.464 3.988 2.777-13.882 7.694-26.487 14.499-37.943 4.753 4.544 10.033 8.73 15.818 12.494 21.559 14.029 45.635 20.861 69.315 20.86 33.857 0 66.902-13.968 90.606-40.837 19.712-22.345 32.508-49.922 38.033-81.964 4.367-25.326 4.21-53.465-.465-83.638-7.907-51.048-25.819-89.888-26.578-91.516z"/><path d="m437.02 74.98c-48.353-48.351-112.64-74.98-181.02-74.98s-132.667 26.629-181.02 74.98c-48.351 48.353-74.98 112.64-74.98 181.02s26.629 132.667 74.98 181.02c48.353 48.351 112.64 74.98 181.02 74.98 37.481 0 73.624-7.935 107.424-23.583 8.8-4.074 2.498-17.686-6.302-13.612-31.81 14.728-65.833 22.195-101.122 22.195-64.374 0-124.894-25.068-170.413-70.587s-70.587-106.039-70.587-170.413 25.068-124.894 70.587-170.413 106.039-70.587 170.413-70.587 124.894 25.068 170.413 70.587 70.587 106.039 70.587 170.413c0 80.394-39.889 155.211-106.703 200.137-8.047 5.411.323 17.859 8.37 12.447 70.965-47.716 113.333-127.188 113.333-212.584 0-68.38-26.629-132.667-74.98-181.02z"/></g></svg>