<svg xmlns="http://www.w3.org/2000/svg" viewBox="0 0 69 69"><defs><style>.cls-1{fill:#fff;}.cls-2{fill:#39b54a;}.cls-3{fill:none;}</style></defs><g id="Layer_2" data-name="Layer 2"><g id="Layer_1-2" data-name="Layer 1"><g id="Ellipse_4" data-name="Ellipse 4"><path class="cls-1" d="M37.11,27.79c-.07.17-.14.35-.2.52.18-.48.37-.95.57-1.42C37.35,27.19,37.23,27.49,37.11,27.79Zm-6.59-3.08a1.6,1.6,0,0,0-.1-.23c.07.18.14.36.22.55ZM17.21,7.3h0l.2,0Z"/><path class="cls-2" d="M43.71,50.47l-1.28,3.76H45Zm0,0-1.28,3.76H45Zm0,0-1.28,3.76H45Zm0,0-1.28,3.76H45Zm0,0-1.28,3.76H45Zm0,0-1.28,3.76H45Zm0,0-1.28,3.76H45Z"/><path class="cls-2" d="M34.5,0A34.51,34.51,0,0,0,.44,40c0,.17,0,.34.08.5a34.51,34.51,0,0,0,68,0c0-.16.06-.33.08-.5A34.51,34.51,0,0,0,34.5,0ZM26.62,51.89v2h-4.2v2.26h5v2.16H20V47.66h7.35v2.16H22.42v2.07Zm4.2,2.39a3.06,3.06,0,0,0,.59,1,2.55,2.55,0,0,0,.89.67,2.69,2.69,0,0,0,1.15.24A3.38,3.38,0,0,0,36,54.86v-.33H34V52.75h4.11v5.56H36V57.26a4,4,0,0,1-2.8,1.13,4.9,4.9,0,0,1-2-.4,4.85,4.85,0,0,1-1.63-1.12,5.12,5.12,0,0,1-1.1-1.73,5.94,5.94,0,0,1-.41-2.23,5.35,5.35,0,0,1,.41-2.07,5.28,5.28,0,0,1,1.11-1.69A5.36,5.36,0,0,1,31.33,48a5.62,5.62,0,0,1,4.7.2,4.06,4.06,0,0,1,1.66,1.7l-1.83,1.38a2.6,2.6,0,0,0-1-1.11,2.86,2.86,0,0,0-1.48-.4,2.49,2.49,0,0,0-2,.94,3.13,3.13,0,0,0-.55,1,4,4,0,0,0-.2,1.26A3.78,3.78,0,0,0,30.82,54.28Zm7.89,4L42.6,47.66h2.22L48.7,58.31H46.18l-.82-2.38H42l-.81,2.38Zm-23.77,0H12.87L8.79,47.66H11.4l2.5,7.56,2.48-7.56H19Zm44.16,0h-2l-.1-.13-4.81-6v6.09H49.75V47.66h1.92l5,6.26V47.66H59.1Zm7.67-18.6a2.89,2.89,0,0,1,0,.29H36.36c0,.17,0,.33-.08.5-.24,1.57-.41,3.15-.52,4.74a1.23,1.23,0,0,1-1.15,1.17h-.07a1.23,1.23,0,0,1-1.21-1c-.26-1.7-.55-3.32-.86-4.87l-.09-.5H2.27a2.93,2.93,0,0,1,0-.29A32,32,0,0,1,1.8,34.5a32.7,32.7,0,0,1,65.39,0A32,32,0,0,1,66.77,39.71Z"/><path class="cls-3" d="M24.83,18.51c.07.12.15.25.21.38-.11-.2-.22-.4-.34-.59Z"/><path class="cls-3" d="M35.58,19.8a7.06,7.06,0,0,0,0,.92A5.65,5.65,0,0,1,35.58,19.8Z"/></g><g id="Rectangle_25" data-name="Rectangle 25"><path class="cls-2" d="M51.47,21.64a.6.6,0,0,1-.06.11q-.19.3-.39.57l-.09.11h0q-.27.36-.54.69c-.21.26-.42.5-.63.73s-.3.3-.44.44-.45.41-.67.59-.3.25-.45.36a10.74,10.74,0,0,1-1.78,1.1,5.27,5.27,0,0,1-.49.22,7.21,7.21,0,0,1-.84.32l-.28.09-.28.08-.19.05-.16,0h-.06l-.45.1h-.08l-.63.09-.67.06-.63,0a12,12,0,0,1-1.7-.13c-.06.13-.11.27-.16.4-.2.48-.39,1-.57,1.46l-.39,1.08c-.1.28-.2.57-.29.86,0,.08,0,.16-.08.25-.13.39-.25.78-.37,1.18q-.32,1-.57,2c-.09.33-.18.66-.26,1s-.18.74-.26,1.11-.18.8-.26,1.21a.59.59,0,0,1,0,.13l-.09.45c-.08.42-.16.84-.23,1.27,0,.1,0,.19,0,.29h-4l-.06-.29c-.12-.57-.23-1.13-.36-1.67,0-.15-.06-.29-.1-.43-.11-.5-.22-1-.34-1.47s-.27-1.13-.42-1.67c-.27-1.06-.56-2.08-.86-3.06-.09-.32-.19-.64-.29-.95l-.3-.92c-.1-.31-.2-.6-.3-.9l-.3-.87c-.1-.28-.2-.56-.31-.84-.21-.57-.43-1.13-.64-1.67A1.6,1.6,0,0,0,28,25c-.13-.34-.27-.67-.42-1s-.28-.66-.42-1l-.07-.15c-.18-.41-.37-.81-.56-1.19-.37-.77-.74-1.49-1.12-2.17-.12-.23-.24-.45-.37-.66s-.22-.4-.34-.59-.11-.18-.17-.27-.21-.36-.32-.53c-.21-.34-.42-.67-.63-1s-.21-.32-.32-.47c-.3-.45-.61-.88-.92-1.27q-.14-.19-.3-.39c-.49-.63-1-1.18-1.41-1.66-.18-.2-.35-.38-.53-.55l-.25-.25q-.26-.25-.48-.45l-.44-.4c-.14-.13-.28-.24-.41-.34l-.37-.29-.33-.24a7.31,7.31,0,0,0-.92-.57l-.06,0A1.21,1.21,0,0,1,16.28,8a.53.53,0,0,1,.06-.1,1.33,1.33,0,0,1,.14-.19.8.8,0,0,1,.17-.15l.09-.07.05,0L17,7.37a.86.86,0,0,1,.23-.06l.2,0a1.24,1.24,0,0,1,.53.12l.13.06a13.1,13.1,0,0,1,2.65,1.9c.12.1.25.21.37.33s.52.48.79.76.37.38.56.59l.59.64.65.78c.19.23.38.48.57.73a35.39,35.39,0,0,1,2.33,3.42c.14.23.28.46.42.71l.19.33c.22.39.45.79.67,1.21l.18.35.43.84q.3.6.6,1.26c.35.73.7,1.51,1,2.32l.35.84c.11.28.23.57.34.87.23.59.45,1.19.67,1.82.11.3.21.6.31.91s.21.61.31.92c.16.49.32,1,.47,1.5s.32,1.06.47,1.61.25.89.36,1.34c.06.19.11.39.16.59.13.5.26,1,.38,1.52s.29,1.21.43,1.83c.09-.47.18-.94.29-1.4l.15-.71a.29.29,0,0,0,0-.09l.15-.59c.09-.37.18-.73.28-1.09s.18-.66.28-1,.22-.75.34-1.12a.6.6,0,0,1,.06-.19c.11-.35.22-.7.34-1,0,0,0,0,0,0,.21-.61.43-1.22.67-1.83s.37-.95.57-1.42c.05-.14.11-.28.17-.42l0-.06,1.15-1.51.43-.54.35-.44.32-.39c.53-.65,1.14-1.37,1.78-2.1l.51-.58.11-.12c.21-.23.42-.46.64-.68a23.74,23.74,0,0,1,2.87-2.65l.45-.33c.14-.11.29-.2.43-.29a24.17,24.17,0,0,0-10.41,7.11A6.9,6.9,0,0,1,36,23c0-.13-.08-.25-.11-.38s-.06-.25-.09-.38a4.1,4.1,0,0,1-.11-.61,2.15,2.15,0,0,1,0-.34,5.07,5.07,0,0,1-.05-.56,5.65,5.65,0,0,1,0-.92c0-.2,0-.4,0-.6s0-.37.07-.56a0,0,0,0,0,0,0A8.22,8.22,0,0,1,36,17.42a8.2,8.2,0,0,1,5-5c6.92-2.66,9-4.76,9-4.78a1.28,1.28,0,0,1,.57-.34,1.23,1.23,0,0,1,1.5.88C52.13,8.56,54.12,16.53,51.47,21.64Z"/></g><line class="cls-3" x1="36.36" y1="40" x2="32.38" y2="40"/></g></g></svg>