<svg xmlns="http://www.w3.org/2000/svg" width="24.839" height="32.683" viewBox="0 0 24.839 32.683"><defs><style>.a{fill:#fff;}</style></defs><g transform="translate(-7.313 -3.938)"><path class="a" d="M22.154,12.025h7.435A.4.4,0,0,0,30,11.617h0a2.418,2.418,0,0,0-.874-1.871l-6.234-5.2a2.624,2.624,0,0,0-1.683-.6h0a.6.6,0,0,0-.6.6v5.924A1.552,1.552,0,0,0,22.154,12.025Z" transform="translate(2.153 0.001)"/><path class="a" d="M20.631,10.474V3.938H9.927A2.622,2.622,0,0,0,7.313,6.552V34.005A2.622,2.622,0,0,0,9.927,36.62h19.61a2.622,2.622,0,0,0,2.615-2.615V14.151H24.307A3.682,3.682,0,0,1,20.631,10.474Z" transform="translate(0)"/></g></svg>