<svg xmlns="http://www.w3.org/2000/svg" width="32.053" height="32.061" viewBox="0 0 32.053 32.061"><defs><style>.a{fill:#fff;}</style></defs><path class="a" d="M33.907,20.527a4.125,4.125,0,0,1,2.646-3.848,16.349,16.349,0,0,0-1.978-4.766,4.18,4.18,0,0,1-1.678.359,4.115,4.115,0,0,1-3.765-5.793A16.3,16.3,0,0,0,24.375,4.5a4.121,4.121,0,0,1-7.7,0,16.349,16.349,0,0,0-4.766,1.978,4.115,4.115,0,0,1-3.765,5.793,4.044,4.044,0,0,1-1.678-.359A16.711,16.711,0,0,0,4.5,16.687a4.123,4.123,0,0,1,.008,7.7,16.349,16.349,0,0,0,1.978,4.766,4.117,4.117,0,0,1,5.434,5.434,16.445,16.445,0,0,0,4.766,1.978,4.114,4.114,0,0,1,7.679,0,16.349,16.349,0,0,0,4.766-1.978,4.121,4.121,0,0,1,5.434-5.434,16.445,16.445,0,0,0,1.978-4.766A4.144,4.144,0,0,1,33.907,20.527ZM20.6,27.2a6.678,6.678,0,1,1,6.678-6.678A6.676,6.676,0,0,1,20.6,27.2Z" transform="translate(-4.5 -4.5)"/></svg>