<?xml version="1.0" encoding="utf-8"?>
<!-- Generator: Adobe Illustrator 25.0.0, SVG Export Plug-In . SVG Version: 6.00 Build 0)  -->
<svg version="1.1" id="Lag_1" xmlns="http://www.w3.org/2000/svg" xmlns:xlink="http://www.w3.org/1999/xlink" x="0px" y="0px"
	 viewBox="0 0 1040.68 277.28" style="enable-background:new 0 0 1040.68 277.28;" xml:space="preserve">
<style type="text/css">
	.st0{fill:none;}
	.st1{fill:#FFFFFF;}
	.st2{font-family:'MaisonMono';}
	.st3{font-size:102px;}
	.st4{font-family:'MaisonMono-Light';}
	.st5{font-size:40px;}
	.st6{fill:#FFFFFF;stroke:#FFFFFF;stroke-width:3;stroke-miterlimit:10;}
</style>
<rect x="171.27" y="79.37" class="st0" width="708.05" height="72.93"/>
<text transform="matrix(1 0 0 1 177.4807 150.7646)" class="st1 st2 st3">MAGSTENSION</text>
<rect x="156.8" y="174.6" class="st0" width="708.05" height="72.93"/>
<text transform="matrix(1 0 0 1 238.0257 202.5978)" class="st1 st4 st5">extensions for VS Code</text>
<g>
	<path class="st1" d="M9.75,171c2.22,1.64,69.35-26.27,70.91-25.14c18.53,13.41,36.98,26.95,55.62,40.18
		c9.76,6.93,14.5,16.36,14.27,28.91c-0.13,6.97,0.05,13.94-0.05,20.91c-0.17,12.09-4.83,21.5-14.83,27.25
		c-9.94,5.72-19.84,5.07-29.19-1.68c-24.48-17.67-48.95-35.35-73.31-53.23C16.84,196.2,8.69,179.21,8.57,157.95
		c-0.08-13.92-0.25-27.91,0.88-41.74c1.34-16.43,9.12-29.74,21.56-39.05C56.8,57.88,82.9,39.08,109.04,20.34
		c9.02-6.47,18.76-6.59,28.27-0.95c9.49,5.62,14.43,14.44,14.53,26.22c0.07,7.72-0.09,15.45,0.05,23.17
		c0.21,11.75-4.35,20.59-13.34,27.07c-19.27,13.9-38.48,27.92-57.7,41.9C79.27,138.89,12.14,169.18,9.75,171z"/>
</g>
<line class="st6" x1="227.62" y1="177.03" x2="219.72" y2="203.2"/>
<g>
	<path class="st1" d="M1032.7,169c-2.22,1.64-69.35-26.27-70.91-25.14c-18.53,13.41-36.98,26.95-55.62,40.18
		c-9.76,6.93-14.5,16.36-14.27,28.91c0.13,6.97-0.05,13.94,0.05,20.91c0.17,12.09,4.83,21.5,14.83,27.25
		c9.94,5.72,19.84,5.07,29.19-1.68c24.48-17.67,48.95-35.35,73.31-53.23c16.34-11.99,24.49-28.99,24.61-50.25
		c0.08-13.92,0.25-27.91-0.88-41.74c-1.34-16.43-9.12-29.74-21.56-39.05c-25.79-19.28-51.89-38.08-78.02-56.81
		c-9.02-6.47-18.76-6.59-28.27-0.95c-9.49,5.62-14.43,14.44-14.53,26.22c-0.07,7.72,0.09,15.45-0.05,23.17
		c-0.21,11.75,4.35,20.59,13.34,27.07c19.27,13.9,38.48,27.92,57.7,41.9C963.19,136.89,1030.31,167.18,1032.7,169z"/>
</g>
</svg>
